G04 EAGLE Gerber X2 export*
%TF.Part,Single*%
%TF.FileFunction,Profile,NP*%
%TF.FilePolarity,Positive*%
%TF.GenerationSoftware,Autodesk,EAGLE,9.0.0*%
%TF.CreationDate,2018-08-14T10:41:07Z*%
G75*
%MOMM*%
%FSLAX34Y34*%
%LPD*%
%AMOC8*
5,1,8,0,0,1.08239X$1,22.5*%
G01*
%ADD10C,0.254000*%


D10*
X0Y419100D02*
X415800Y419100D01*
X415800Y800000D01*
X0Y800000D01*
X0Y419100D01*
X359410Y746220D02*
X359339Y745141D01*
X359198Y744069D01*
X358987Y743009D01*
X358708Y741965D01*
X358360Y740941D01*
X357946Y739943D01*
X357468Y738973D01*
X356928Y738037D01*
X356327Y737138D01*
X355669Y736281D01*
X354957Y735468D01*
X354192Y734704D01*
X353379Y733991D01*
X352522Y733333D01*
X351623Y732732D01*
X350687Y732192D01*
X349717Y731714D01*
X348719Y731300D01*
X347695Y730952D01*
X346651Y730673D01*
X345591Y730462D01*
X344519Y730321D01*
X343440Y730250D01*
X342360Y730250D01*
X341281Y730321D01*
X340209Y730462D01*
X339149Y730673D01*
X338105Y730952D01*
X337081Y731300D01*
X336083Y731714D01*
X335113Y732192D01*
X334177Y732732D01*
X333278Y733333D01*
X332421Y733991D01*
X331608Y734704D01*
X330844Y735468D01*
X330131Y736281D01*
X329473Y737138D01*
X328872Y738037D01*
X328332Y738973D01*
X327854Y739943D01*
X327440Y740941D01*
X327092Y741965D01*
X326813Y743009D01*
X326602Y744069D01*
X326461Y745141D01*
X326390Y746220D01*
X326390Y747300D01*
X326461Y748379D01*
X326602Y749451D01*
X326813Y750511D01*
X327092Y751555D01*
X327440Y752579D01*
X327854Y753577D01*
X328332Y754547D01*
X328872Y755483D01*
X329473Y756382D01*
X330131Y757239D01*
X330844Y758052D01*
X331608Y758817D01*
X332421Y759529D01*
X333278Y760187D01*
X334177Y760788D01*
X335113Y761328D01*
X336083Y761806D01*
X337081Y762220D01*
X338105Y762568D01*
X339149Y762847D01*
X340209Y763058D01*
X341281Y763199D01*
X342360Y763270D01*
X343440Y763270D01*
X344519Y763199D01*
X345591Y763058D01*
X346651Y762847D01*
X347695Y762568D01*
X348719Y762220D01*
X349717Y761806D01*
X350687Y761328D01*
X351623Y760788D01*
X352522Y760187D01*
X353379Y759529D01*
X354192Y758817D01*
X354957Y758052D01*
X355669Y757239D01*
X356327Y756382D01*
X356928Y755483D01*
X357468Y754547D01*
X357946Y753577D01*
X358360Y752579D01*
X358708Y751555D01*
X358987Y750511D01*
X359198Y749451D01*
X359339Y748379D01*
X359410Y747300D01*
X359410Y746220D01*
M02*
